<?xml version="1.0" encoding="UTF-8"?>
<svg id="Layer_2" data-name="Layer 2" xmlns="http://www.w3.org/2000/svg" viewBox="0 0 1080 1080">
  <defs>
    <style>
      .cls-1 {
        fill: none;
      }

      .cls-2 {
        fill: #708090;
      }

      .cls-3 {
        fill: #242424;
      }

      .cls-4 {
        fill: ivory;
      }

      .cls-5 {
        fill: #ffd503;
      }
    </style>
  </defs>
  <path class="cls-1" d="M348.07,288.71l105.72-55.89v-.79l-105.72,56.67Z"/>
  <path class="cls-3" d="M345.44,792.06l-43.6,6.23v-148.49l43.6-11.27v153.53ZM350.85,580.11l-49,14.76v-248.26l49-24.21v257.71ZM425.96,822.57l-37.23,3.89V293.24l37.23-18.19v547.52Z"/>
  <path class="cls-3" d="M455.72,232.17v607.64l124.6,14.11V306.81l-124.6-74.63ZM497.36,303.8l44.77,25.05v260.02l-44.77-15.05v-270.02ZM542.84,792.24l-45.48-7.36v-153.17l45.48,13.12v147.41Z"/>
  <path class="cls-1" d="M809.74,356.24h.02v-17.72l-.02,17.72Z"/>
  <path class="cls-3" d="M809.75,338.52l-110.97-81.81v587.63l110.97,15.63v-503.73h-.02l.02-17.72ZM722.56,361.37l67.85,42.83v27.9l-67.85-40.76v-29.97ZM720.39,479.74l72.3,36.87v30.41l-72.3-34.47v-32.8ZM795.47,781.44l-73.62-16.26v-31.37l73.62,18.6v29.03ZM796.18,662.36l-72.53-25.52v-33.32l72.53,27.99v30.85Z"/>
  <polygon class="cls-2" points="825.42 300.87 825.42 349.41 699.07 256.14 699.07 200.52 825.42 300.87"/>
  <polygon class="cls-2" points="455.84 172.75 580.4 254.34 580.4 307.02 455.75 231.35 455.84 172.75"/>
  <polyline class="cls-2" points="453.78 232.2 348.07 288.79 230.21 350.98 230.21 300.38 454.41 172.82"/>
  <polygon class="cls-2" points="580.41 254.74 697.27 200.1 697.27 255.37 580.41 306.08 580.41 254.74"/>
  <polygon class="cls-1" points="453.78 232.04 453.78 232.82 348.07 288.71 453.78 232.04"/>
  <polygon class="cls-5" points="425.96 275.04 425.96 822.57 388.73 826.46 388.73 293.24 425.96 275.04"/>
  <polygon class="cls-3" points="350.85 322.4 350.85 580.11 301.84 594.87 301.84 346.61 350.85 322.4"/>
  <polygon class="cls-3" points="345.44 638.53 345.44 792.06 301.84 798.29 301.84 649.8 345.44 638.53"/>
  <polygon class="cls-4" points="542.84 645.91 542.84 793.71 497.36 786.33 497.36 632.76 542.84 645.91"/>
  <polygon class="cls-4" points="542.13 329.11 542.13 589.81 497.36 574.72 497.36 303.99 542.13 329.11"/>
  <polygon class="cls-4" points="790.41 404.21 790.41 432.1 722.56 391.34 722.56 361.37 790.41 404.21"/>
  <polygon class="cls-4" points="792.69 516.61 792.69 547.02 720.39 512.55 720.39 479.74 792.69 516.61"/>
  <polygon class="cls-4" points="796.18 631.51 796.18 662.36 723.65 636.84 723.65 603.52 796.18 631.51"/>
  <polygon class="cls-4" points="795.47 752.41 795.47 781.44 721.85 765.18 721.85 733.82 795.47 752.41"/>
  <polygon points="258.55 336.68 258.51 361.57 230.21 350.98 258.55 336.68"/>
  <polygon points="825.17 349.76 809.75 356.24 809.74 356.24 809.75 338.52 825.17 349.76"/>
</svg>