<?xml version="1.0" encoding="UTF-8"?>
<svg id="Layer_2" data-name="Layer 2" xmlns="http://www.w3.org/2000/svg" viewBox="0 0 1080 1080">
  <defs>
    <style>
      .cls-1 {
        fill: none;
      }

      .cls-2 {
        fill: #708090;
      }

      .cls-3 {
        fill: #242424;
      }

      .cls-4 {
        fill: ivory;
      }

      .cls-5 {
        fill: #ffd503;
      }
    </style>
  </defs>
  <path class="cls-1" d="M371.89,290.44l101.53-53.68v-.76l-101.53,54.43Z"/>
  <path class="cls-3" d="M371.89,290.3l-85.97,45.95v501.88l187.51-18.48V236.76l-101.53,53.54ZM369.37,773.88l-41.87,5.98v-142.62l41.87-10.83v147.46ZM374.56,570.31l-47.07,14.18v-238.44l47.07-23.26v247.52ZM446.71,803.18l-35.76,3.74V294.79l35.76-17.47v525.87Z"/>
  <path class="cls-3" d="M475.29,236.14v583.61l119.67,13.55V307.82l-119.67-71.68ZM515.28,304.94l43,24.06v249.74l-43-14.45v-259.34ZM558.96,774.05l-43.68-7.07v-147.11l43.68,12.6v141.58Z"/>
  <polygon class="cls-3" points="706.93 259.62 706.93 824.21 595.22 833.39 595.22 307.82 706.93 259.62"/>
  <path class="cls-1" d="M815.3,355.29h.02v-17.01l-.02,17.01Z"/>
  <path class="cls-3" d="M815.32,338.28l-106.58-78.57v564.39l106.58,15.01v-483.81h-.02l.02-17.01ZM731.57,360.23l65.17,41.14v26.79l-65.17-39.15v-28.78ZM729.49,473.92l69.44,35.41v29.2l-69.44-33.11v-31.51ZM801.6,763.68l-70.71-15.61v-30.13l70.71,17.86v27.88ZM802.28,649.31l-69.66-24.51v-32l69.66,26.88v29.63Z"/>
  <polygon class="cls-2" points="830.36 302.11 830.36 348.74 709.01 259.15 709.01 205.74 830.36 302.11"/>
  <polygon class="cls-2" points="475.4 179.06 595.03 257.42 595.03 308.03 475.32 235.35 475.4 179.06"/>
  <polyline class="cls-2" points="473.43 236.16 371.89 290.52 258.7 350.25 258.7 301.65 474.03 179.14"/>
  <polygon class="cls-2" points="595.05 257.81 707.28 205.33 707.28 258.42 595.05 307.12 595.05 257.81"/>
  <polygon class="cls-1" points="473.43 236.01 473.43 236.76 371.89 290.44 473.43 236.01"/>
  <polygon class="cls-5" points="446.71 277.31 446.71 803.18 410.95 806.91 410.95 294.79 446.71 277.31"/>
  <polygon class="cls-4" points="374.56 322.79 374.56 570.31 327.5 584.49 327.5 346.05 374.56 322.79"/>
  <polygon class="cls-4" points="369.37 626.42 369.37 773.88 327.5 779.86 327.5 637.25 369.37 626.42"/>
  <polygon class="cls-4" points="558.96 633.51 558.96 775.46 515.28 768.37 515.28 620.88 558.96 633.51"/>
  <polygon class="cls-4" points="558.28 329.24 558.28 579.63 515.28 565.14 515.28 305.12 558.28 329.24"/>
  <polygon class="cls-4" points="796.74 401.37 796.74 428.16 731.57 389.01 731.57 360.23 796.74 401.37"/>
  <polygon class="cls-4" points="798.93 509.33 798.93 538.53 729.49 505.42 729.49 473.92 798.93 509.33"/>
  <polygon class="cls-4" points="802.28 619.68 802.28 649.31 732.62 624.8 732.62 592.8 802.28 619.68"/>
  <polygon class="cls-4" points="801.6 735.8 801.6 763.68 730.89 748.06 730.89 717.94 801.6 735.8"/>
  <polygon points="285.92 336.51 285.88 360.41 258.7 350.25 285.92 336.51"/>
  <polygon points="830.13 349.07 815.32 355.29 815.3 355.29 815.32 338.28 830.13 349.07"/>
</svg>