<?xml version="1.0" encoding="UTF-8"?>
<svg id="Layer_2" data-name="Layer 2" xmlns="http://www.w3.org/2000/svg" viewBox="0 0 1080 1080">
  <defs>
    <style>
      .cls-1 {
        fill: #ffd506;
      }

      .cls-2 {
        fill: #242424;
      }
    </style>
  </defs>
  <path class="cls-2" d="M161.11,503.25v.11l.06-.11h-.06Z"/>
  <path class="cls-2" d="M709.12,311.97h-442.59l-105.36,191.28-.06.11v315.85h315.97v-280.95c0-19.28,15.63-34.9,34.9-34.9h208.37c19.28,0,34.9,15.63,34.9,34.9v279.11h42.74v-314.01l-88.88-191.39ZM439.61,781.74h-241.03v-241.02h241.03v241.02ZM213.58,472.36l63.76-115.76,7.51-13.63h404.48l7.19,15.47,52.91,113.92H213.58Z"/>
  <path class="cls-2" d="M284.85,342.97l-7.51,13.63c4.76-8.41,13.68-13.63,23.36-13.63h-15.85ZM689.33,342.97h-17.11c10.41,0,19.89,6.04,24.3,15.47l-7.19-15.47Z"/>
  <polygon class="cls-2" points="749.43 472.36 213.58 472.36 277.34 356.6 284.85 342.97 689.33 342.97 696.52 358.44 749.43 472.36"/>
  <polygon class="cls-2" points="749.43 472.36 213.58 472.36 277.34 356.6 284.85 342.97 689.33 342.97 696.52 358.44 749.43 472.36"/>
  <path class="cls-1" d="M749.43,472.36H213.58l63.76-115.76h0c4.63-8.41,13.47-13.63,23.07-13.63h372.11c10.25,0,19.57,5.95,23.89,15.24l.11.23,52.91,113.92Z"/>
  <rect class="cls-2" x="470.62" y="55.72" width="34.86" height="444.99" transform="translate(766.26 -209.83) rotate(90)"/>
</svg>