<svg preserveAspectRatio="none" width="100%" height="100%" overflow="visible" style="display: block;" viewBox="0 0 83 38" fill="none" xmlns="http://www.w3.org/2000/svg">
<g id="Group 633105">
<g id="Group 633104">
<g id="Group">
<path id="Vector" d="M39.135 24.0037V29.1772H47.5776V32.4147H35.2316V12.5777H47.5146L47.0385 15.8152H39.1357V20.9888H46.3719V24.0037H39.1357H39.135Z" fill="var(--fill-0, #FFFBE6)"/>
<path id="Vector_2" d="M50.997 37.9999C50.5524 37.9999 50.0712 37.9625 49.5533 37.8885C49.0347 37.8138 48.5747 37.7245 48.1726 37.619L48.3945 35.3021C49.22 35.3021 49.8492 35.2494 50.2828 35.1432C50.7165 35.037 51.0073 34.8465 51.156 34.5719C51.3039 34.2965 51.3779 33.8841 51.3779 33.334V16.8934L55.282 16.3536V33.9683C55.282 35.3219 54.9378 36.3328 54.2507 36.9993C53.5629 37.6659 52.4781 37.9991 50.9977 37.9991L50.997 37.9999Z" fill="var(--fill-0, #FFFBE6)"/>
<path id="Vector_3" d="M63.0016 32.7639C61.2246 32.7639 59.9435 32.383 59.1612 31.6212C58.3782 30.8594 57.987 29.6113 57.987 27.876C57.987 26.7971 58.1027 25.924 58.3364 25.2574C58.5686 24.5908 59.003 24.0781 59.6373 23.7185C60.2724 23.3588 61.1814 23.1105 62.3665 22.9728C63.5509 22.8351 65.0958 22.7662 67.0002 22.7662H68.5553V25.0831H64.0483C63.0961 25.0831 62.4398 25.2054 62.0809 25.4478C61.7205 25.691 61.541 26.1518 61.541 26.8286V29.9072H65.1273C66.0795 29.9072 66.7299 29.7915 67.0793 29.5578C67.4287 29.3249 67.603 28.8707 67.603 28.1932V19.4972C66.9255 19.2862 65.9843 19.18 64.7786 19.18C63.9106 19.18 63.006 19.2437 62.0647 19.3704C61.1228 19.4972 60.1654 19.6986 59.1927 19.9733L58.6851 17.1803C59.2769 16.9694 59.9391 16.7892 60.6686 16.6405C61.3989 16.4925 62.1651 16.3819 62.9694 16.3072C63.7729 16.2332 64.5566 16.1959 65.3177 16.1959C66.82 16.1959 68.0257 16.3497 68.9362 16.6559C69.8459 16.9628 70.5015 17.4601 70.9036 18.1472C71.305 18.835 71.5064 19.7499 71.5064 20.8925V32.4137H69.6342L68.6183 30.8272C67.8565 31.4835 67.0156 31.9699 66.0949 32.287C65.1741 32.6042 64.1428 32.7631 63.0001 32.7631L63.0016 32.7639Z" fill="var(--fill-0, #FFFBE6)"/>
<path id="Vector_4" d="M76.4391 16.5455L77.7085 18.9576C78.5757 18.1321 79.3587 17.4977 80.0568 17.0531C80.7549 16.6085 81.4427 16.2811 82.1195 16.0694L82.4689 19.8783C82.0455 19.9845 81.5804 20.1376 81.0727 20.3383C80.5651 20.5397 80.0832 20.7617 79.6283 21.0049C79.1734 21.248 78.7874 21.4971 78.4702 21.7505V32.4147H74.5661V16.5455H76.4383H76.4391Z" fill="var(--fill-0, #FFFBE6)"/>
</g>
</g>
<path id="Vector_5" d="M30.6873 14.6799H28.1756C27.9105 14.6799 27.6958 14.8945 27.6958 15.1597V32.0873C27.6958 32.3525 27.4812 32.5671 27.2161 32.5671H19.6254C19.3976 32.5671 19.2013 32.4067 19.1558 32.1833L16.6757 20.0519C16.6266 19.8132 16.7643 19.5736 16.9972 19.5004C18.8965 18.9005 20.2736 17.1249 20.2736 15.0271C20.2736 14.9099 20.2692 14.7949 20.2604 14.6799C20.2582 14.644 20.2553 14.6081 20.2516 14.5722C20.0231 12.1953 18.0198 10.337 15.5835 10.337C13.1473 10.337 11.1447 12.1953 10.9154 14.5722C10.9118 14.6081 10.9088 14.644 10.9066 14.6799C10.8978 14.7942 10.8934 14.9099 10.8934 15.0271C10.8934 17.1242 12.2698 18.9005 14.1698 19.5004C14.4028 19.5736 14.5397 19.8132 14.4914 20.0519L12.0112 32.1833C11.9658 32.4067 11.7695 32.5671 11.5417 32.5671H3.95098C3.68582 32.5671 3.47121 32.3525 3.47121 32.0873V15.1597C3.47121 14.8945 3.25659 14.6799 2.99143 14.6799H0.480484C0.041728 14.6799 -0.166297 14.1401 0.158193 13.8456L15.2612 0.124777C15.4444 -0.0414959 15.7234 -0.0414959 15.9058 0.124777L31.0096 13.8449C31.3341 14.1393 31.1253 14.6792 30.6873 14.6792V14.6799Z" fill="var(--fill-0, #FED700)"/>
</g>
</svg>
