<?xml version="1.0" encoding="UTF-8"?>
<svg id="Layer_2" data-name="Layer 2" xmlns="http://www.w3.org/2000/svg" viewBox="0 0 1080 1080">
  <defs>
    <style>
      .cls-1 {
        fill: #242424;
      }
    </style>
  </defs>
  <path class="cls-1" d="M348.07,312.35l11.91-6.3,1.21-.64,92.6-48.95v-.78l-105.72,56.67Z"/>
  <path class="cls-1" d="M301.84,673.44v148.49l43.6-6.23v-153.53l-43.6,11.27ZM301.84,370.25v248.26l49.01-14.76v-257.72l-49.01,24.22ZM388.73,316.87v533.22l37.24-3.89V298.68l-37.24,18.19Z"/>
  <path class="cls-1" d="M497.36,655.35v1.05l45.48,13.15v-1.09l-45.48-13.11ZM559.29,317.84l-.79-.47-102.78-61.56v607.64l124.6,14.11V330.44l-21.03-12.6ZM497.36,327.44l44.77,25.05v260.02l-44.77-15.05v-270.02ZM542.84,815.88l-45.48-7.37v-152.11l45.48,13.15v146.33Z"/>
  <path class="cls-1" d="M809.74,379.87h.02v-17.71l-.02,17.71Z"/>
  <path class="cls-1" d="M809.76,362.16l-110.97-81.81v587.63l110.97,15.63v-503.74h-.02l.02-17.71ZM722.56,385.01l67.85,42.83v27.9l-67.85-40.76v-29.97ZM720.4,503.38l72.29,36.87v30.41l-72.29-34.47v-32.81ZM795.47,805.08l-73.62-16.26v-31.37l73.62,18.6v29.03ZM796.18,686l-72.53-25.52v-33.32l72.53,27.99v30.85Z"/>
  <polygon class="cls-1" points="825.42 324.51 825.42 373.05 699.07 279.78 699.07 224.16 825.42 324.51"/>
  <polygon class="cls-1" points="455.84 196.39 580.4 277.98 580.4 330.66 455.75 254.99 455.84 196.39"/>
  <polygon class="cls-1" points="453.78 255.84 348.07 312.44 230.21 374.62 230.21 324.02 454.41 196.46 453.78 255.84"/>
  <polygon class="cls-1" points="580.41 278.38 697.27 223.74 697.27 279.01 580.41 329.72 580.41 278.38"/>
  <polygon class="cls-1" points="453.78 255.68 453.78 256.47 348.07 312.35 453.78 255.68"/>
  <polygon class="cls-1" points="425.96 298.68 425.96 846.21 388.73 850.1 388.73 316.88 425.96 298.68"/>
  <polygon class="cls-1" points="350.85 346.04 350.85 603.75 301.84 618.52 301.84 370.25 350.85 346.04"/>
  <polygon class="cls-1" points="345.44 662.17 345.44 815.7 301.84 821.93 301.84 673.44 345.44 662.17"/>
  <polygon class="cls-1" points="542.84 815.88 542.84 817.35 497.36 809.97 497.36 808.51 542.84 815.88"/>
  <polygon class="cls-1" points="542.13 612.51 542.13 613.45 497.36 598.36 497.36 597.46 542.13 612.51"/>
  <polygon class="cls-1" points="258.55 360.32 258.51 385.21 230.21 374.62 258.55 360.32"/>
  <polygon class="cls-1" points="825.17 373.4 809.75 379.88 809.74 379.88 809.75 362.16 825.17 373.4"/>
</svg>