<?xml version="1.0" encoding="UTF-8"?>
<svg id="Layer_2" data-name="Layer 2" xmlns="http://www.w3.org/2000/svg" viewBox="0 0 1080 1080">
  <defs>
    <style>
      .cls-1 {
        fill: #fff;
      }
    </style>
  </defs>
  <path class="cls-1" d="M386.73,313.4l-.04.02-14.79,7.93,11.71-6.19.23-.12,89.59-47.36v-.76l-86.7,46.48Z"/>
  <path class="cls-1" d="M398.3,307.3l-.08.04-11.49,6.06-.04.02-14.79,7.8-30.99,16.56-.28.15-54.71,29.24v501.88l187.51-18.48V267.68l-75.13,39.62ZM369.37,804.79l-41.87,5.99v-142.62l41.87-10.83v147.46ZM374.57,601.23l-47.07,14.18v-238.45l47.07-23.25v247.52ZM446.71,834.09l-35.76,3.74V325.7l35.76-17.47v525.86Z"/>
  <path class="cls-1" d="M515.28,595.19v.86l43,14.5v-.91l-43-14.45ZM515.28,797.89v1.4l43.68,7.09v-1.42l-43.68-7.07ZM575.52,327.09l19.44,11.8v-.16l-19.44-11.64Z"/>
  <polygon class="cls-1" points="706.93 290.53 706.93 855.13 595.22 864.31 595.22 338.73 706.93 290.53"/>
  <path class="cls-1" d="M815.3,386.21h.02v-17.02l-.02,17.02Z"/>
  <polygon class="cls-1" points="830.36 333.03 830.36 379.66 709.01 290.07 709.01 236.65 830.36 333.03"/>
  <polygon class="cls-1" points="595.04 288.34 595.04 338.94 594.96 338.89 575.52 327.09 575.04 326.8 475.32 266.26 475.41 209.98 595.04 288.34"/>
  <polygon class="cls-1" points="473.43 267.08 371.89 321.44 258.7 381.17 258.7 332.56 474.03 210.05 473.43 267.08"/>
  <polygon class="cls-1" points="595.05 288.73 707.28 236.25 707.28 289.34 595.05 338.04 595.05 288.73"/>
  <polygon class="cls-1" points="473.43 266.93 473.43 267.68 371.89 321.36 473.43 266.93"/>
  <polygon class="cls-1" points="558.96 664.42 558.96 806.38 515.28 799.29 515.28 651.79 558.96 664.42"/>
  <polygon class="cls-1" points="558.28 360.15 558.28 610.55 515.28 596.05 515.28 336.03 558.28 360.15"/>
  <polygon class="cls-1" points="796.74 432.28 796.74 459.07 731.57 419.92 731.57 391.14 796.74 432.28"/>
  <polygon class="cls-1" points="798.93 540.24 798.93 569.45 729.49 536.34 729.49 504.83 798.93 540.24"/>
  <polygon class="cls-1" points="802.28 650.6 802.28 680.22 732.62 655.71 732.62 623.71 802.28 650.6"/>
  <polygon class="cls-1" points="801.6 766.71 801.6 794.59 730.89 778.98 730.89 748.85 801.6 766.71"/>
  <polygon class="cls-1" points="285.92 367.43 285.88 391.33 258.7 381.17 285.92 367.43"/>
  <polygon class="cls-1" points="830.13 379.99 815.32 386.21 815.3 386.21 815.32 369.19 830.13 379.99"/>
</svg>