<?xml version="1.0" encoding="UTF-8"?>
<svg id="Layer_2" data-name="Layer 2" xmlns="http://www.w3.org/2000/svg" viewBox="0 0 1080 1080">
  <defs>
    <style>
      .cls-1 {
        fill: #ffd506;
      }
    </style>
  </defs>
  <path class="cls-1" d="M246.58,374.06l-13.85-.09.03-13.81c0,7.64,6.17,13.85,13.82,13.9Z"/>
  <path class="cls-1" d="M246.8,847.24h-13.76s-.06-13.74-.06-13.74c.09,7.58,6.24,13.68,13.82,13.74Z"/>
  <path class="cls-1" d="M246.83,404.56c-7.63.03-13.81,6.19-13.86,13.82l.09-13.77,13.77-.05Z"/>
  <path class="cls-1" d="M246.91,232.74c-7.65,0-13.87,6.19-13.91,13.86l.03-13.86h13.88Z"/>
  <path class="cls-1" d="M475.88,833.32l-.09,13.7h-13.81c7.6.01,13.79-6.11,13.9-13.7Z"/>
  <path class="cls-1" d="M519.59,847.24h-13.88l-.03-13.88c0,.88.09,1.74.25,2.57.03.2.07.4.13.6.04.2.09.39.15.59.1.39.23.78.38,1.15.3.8.68,1.56,1.12,2.29.11.19.23.38.36.56.25.37.52.73.8,1.07.1.12.2.24.3.35.59.67,1.25,1.28,1.96,1.83.16.12.31.24.48.35.13.09.27.19.41.28,1.02.66,2.13,1.2,3.31,1.57.13.05.26.09.39.12.13.04.27.08.4.11.21.06.41.1.62.15.05.01.09.02.13.02.16.03.31.06.46.08.13.03.26.05.38.06.21.03.42.05.62.07.18.02.36.03.55.04.23.01.47.02.71.02Z"/>
  <path class="cls-1" d="M582.73,246.54c-.03-7.63-6.2-13.81-13.82-13.86h13.79l.03,13.86Z"/>
  <path class="cls-1" d="M583,373.67l-13.74.2c7.61-.11,13.71-6.3,13.71-13.9l.03,13.7Z"/>
  <path class="cls-1" d="M626.29,232.71c-7.58.09-13.71,6.25-13.75,13.85l.02-13.85h13.73Z"/>
  <path class="cls-1" d="M780.79,404.47c9.07.01,18.13.02,26.12.03l-26.12-.03Z"/>
  <path class="cls-1" d="M829.51,404.53c1.94,0,3.24,0,3.76.01h-3.76Z"/>
  <path class="cls-1" d="M846.91,642.67l-.03,13.86-13.86.02c7.66-.01,13.87-6.22,13.89-13.88Z"/>
  <path class="cls-1" d="M846.92,833.57l-.03,13.69h-13.85c7.59-.02,13.77-6.12,13.88-13.69Z"/>
  <path class="cls-1" d="M846.97,246.54c-.09-7.61-6.28-13.75-13.91-13.75h13.88l.03,13.75Z"/>
  <path class="cls-1" d="M847.21,373.22l-13.87.06c7.66-.03,13.84-6.24,13.84-13.89l.03,13.83Z"/>
  <path class="cls-1" d="M847.3,685.6l-.04,13.88c0-7.66-6.18-13.87-13.84-13.91l13.88.03Z"/>
  <path class="cls-1" d="M847.43,404.56l-.03,13.87c-.01-7.64-6.2-13.85-13.84-13.89l13.87.02Z"/>
  <g>
    <path class="cls-1" d="M591.05,670.13c-.01.11-.02.23-.02.34-.38,7.94,5.92,14.61,13.87,14.62l228.48.48h.04c7.66.04,13.84,6.25,13.84,13.91v.04l-.33,133.86c0,.06,0,.13-.01.19-.11,7.57-6.29,13.67-13.88,13.69h-.03l-313.42-.02c-.24,0-.48-.01-.71-.02-.19,0-.37-.02-.55-.04-.2-.02-.41-.04-.62-.07-.12-.01-.25-.03-.38-.06-.15-.02-.3-.05-.46-.08-.04,0-.08,0-.13-.02-.21-.05-.41-.09-.62-.15-.13-.03-.27-.07-.4-.11-.13-.03-.26-.07-.39-.12-1.18-.37-2.29-.91-3.31-1.57-.14-.09-.28-.19-.41-.28-.17-.11-.32-.23-.48-.35-.71-.55-1.37-1.16-1.96-1.83-.1-.11-.2-.23-.3-.35-.28-.34-.55-.7-.8-1.07-.13-.18-.25-.37-.36-.56-.44-.73-.82-1.49-1.12-2.29-.14-.38-.27-.76-.38-1.15-.06-.2-.11-.39-.15-.59-.05-.2-.09-.4-.13-.6v-190.17c0-8.02-6.49-14.51-14.51-14.51h-1.03c-8.01,0-14.51,6.49-14.51,14.51v187.56c-.11,7.59-6.3,13.71-13.9,13.71l-215.07.21h-.11c-7.58-.06-13.73-6.16-13.82-13.74v-.12l-.77-188.12v-.12c-.1-7.61-6.29-13.73-13.9-13.73h-1.92c-7.64.06-13.81,6.26-13.81,13.91v-128.49c0,7.61,6.1,13.79,13.71,13.91,0,0,1.93.03,1.93.03h.21c7.63-.02,13.84-6.17,13.89-13.82l.65-98.57c.05-7.63,6.23-13.79,13.86-13.82l107.67-.43c7.64-.03,13.82-6.23,13.85-13.87v-.05c0-.56,0-1.12-.01-1.68-.08-7.59-6.23-13.7-13.82-13.75l-107.94-.72c-7.65-.05-13.82-6.26-13.82-13.9v-.04l.24-113.5v-.02c.04-7.67,6.26-13.86,13.91-13.86l321.91-.06h.09c7.62.05,13.79,6.23,13.82,13.86,0,.02.24,113.39.24,113.39v.04c0,7.6-6.1,13.79-13.71,13.9l-80.97,1.18c-8.18.12-14.48,7.24-13.63,15.38.03.32.06.63.1.94.03.31.07.62.11.93.86,6.92,6.7,12.12,13.66,12.2h.15l109.76-.05h.14c7.6-.09,13.73-6.24,13.77-13.85v-.05l.19-143.94v-.05c.04-7.6,6.17-13.76,13.75-13.85h.17l206.6.08c7.63,0,13.82,6.14,13.91,13.75v.13l.21,112.68v.04c0,7.65-6.18,13.86-13.84,13.89l-105.21.5c-7.43.03-13.52,5.9-13.83,13.32l-.12,2.8v.06c-.3,7.87,5.99,14.42,13.86,14.44.01,0,26.38.04,52.75.07l26.12.03c2.18,0,4.28.01,6.28.01,1.33,0,2.61,0,3.85.01h3.55c.98,0,1.92,0,2.81.01.5-.01.99,0,1.46,0h6.34s2.24.01,2.24.01h.12c7.64.04,13.83,6.25,13.84,13.89v.05l-.49,224.19c-.02,7.66-6.23,13.87-13.89,13.88l-228.1.37h-.15c-7.33.1-13.31,5.87-13.72,13.21Z"/>
    <path class="cls-1" d="M246.58,374.06l-13.85-.09.03-13.81c0,7.64,6.17,13.85,13.82,13.9Z"/>
    <path class="cls-1" d="M246.8,847.24h-13.76s-.06-13.74-.06-13.74c.09,7.58,6.24,13.68,13.82,13.74Z"/>
    <path class="cls-1" d="M246.83,404.56c-7.63.03-13.81,6.19-13.86,13.82l.09-13.77,13.77-.05Z"/>
    <path class="cls-1" d="M246.91,232.74c-7.65,0-13.87,6.19-13.91,13.86l.03-13.86h13.88Z"/>
    <path class="cls-1" d="M475.88,833.32l-.09,13.7h-13.81c7.6.01,13.79-6.11,13.9-13.7Z"/>
    <path class="cls-1" d="M519.59,847.24h-13.88l-.03-13.88c0,.88.09,1.74.25,2.57.03.2.07.4.13.6.04.2.09.39.15.59.1.39.23.78.38,1.15.3.8.68,1.56,1.12,2.29.11.19.23.38.36.56.25.37.52.73.8,1.07.1.12.2.24.3.35.59.67,1.25,1.28,1.96,1.83.16.12.31.24.48.35.13.09.27.19.41.28,1.02.66,2.13,1.2,3.31,1.57.13.05.26.09.39.12.13.04.27.08.4.11.21.06.41.1.62.15.05.01.09.02.13.02.16.03.31.06.46.08.13.03.26.05.38.06.21.03.42.05.62.07.18.02.36.03.55.04.23.01.47.02.71.02Z"/>
    <path class="cls-1" d="M582.73,246.54c-.03-7.63-6.2-13.81-13.82-13.86h13.79l.03,13.86Z"/>
    <path class="cls-1" d="M583,373.67l-13.74.2c7.61-.11,13.71-6.3,13.71-13.9l.03,13.7Z"/>
    <path class="cls-1" d="M626.29,232.71c-7.58.09-13.71,6.25-13.75,13.85l.02-13.85h13.73Z"/>
    <path class="cls-1" d="M846.91,642.67l-.03,13.86-13.86.02c7.66-.01,13.87-6.22,13.89-13.88Z"/>
    <path class="cls-1" d="M846.92,833.57l-.03,13.69h-13.85c7.59-.02,13.77-6.12,13.88-13.69Z"/>
    <path class="cls-1" d="M846.97,246.54c-.09-7.61-6.28-13.75-13.91-13.75h13.88l.03,13.75Z"/>
    <path class="cls-1" d="M847.21,373.22l-13.87.06c7.66-.03,13.84-6.24,13.84-13.89l.03,13.83Z"/>
    <path class="cls-1" d="M847.3,685.6l-.04,13.88c0-7.66-6.18-13.87-13.84-13.91l13.88.03Z"/>
    <path class="cls-1" d="M847.43,404.56l-.03,13.87c-.01-7.64-6.2-13.85-13.84-13.89l13.87.02Z"/>
    <path d="M877.42,845l-31.2,32.38H216.49c-7.68,0-13.91-6.23-13.91-13.91v-218.15c0-7.65,6.17-13.85,13.81-13.91h1.92c7.61,0,13.8,6.12,13.9,13.73v.12l.77,188.12v.12l.06,13.75h13.76s.11-.01.11-.01l215.07-.21h13.81s.09-13.71.09-13.71v-187.56c0-8.02,6.5-14.51,14.51-14.51h1.03c8.02,0,14.51,6.49,14.51,14.51v190.17c-.16-.83-.25-1.69-.25-2.57l.03,13.88h13.88l313.42.02h13.88l.03-13.69c.01-.06.01-.13.01-.19l.33-133.86v-.04l.04-13.88-13.88-.03h-.04l-228.48-.48c-7.95-.01-14.25-6.68-13.87-14.62,0-.11,0-.23.02-.34.41-7.34,6.39-13.11,13.72-13.21h.15l228.1-.37,13.86-.02.03-13.86.49-224.19v-.05l.03-13.87-13.87-.02h-.12c-.33,0-1.71,0-3.93-.01h-4.65c-.47,0-.96-.01-1.46,0-.89-.01-1.83-.01-2.81-.01h-3.55c-1.24-.01-2.52-.01-3.85-.01-2,0-4.1-.01-6.28-.01-7.99-.01-17.05-.02-26.12-.03-26.37-.03-52.74-.07-52.75-.07-7.87-.02-14.16-6.57-13.86-14.44v-.06l.12-2.8c.31-7.42,6.4-13.29,13.83-13.32l105.21-.5,13.87-.06-.03-13.83v-.04l-.21-112.68v-.13l-.03-13.75h-13.88l-206.6-.08h-13.9l-.02,13.85v.05l-.19,143.94v.05c-.04,7.61-6.17,13.76-13.77,13.85h-.14l-109.76.05h-.15c-6.96-.08-12.8-5.28-13.66-12.2-.04-.31-.08-.62-.11-.93-.04-.31-.07-.62-.1-.94-.85-8.14,5.45-15.26,13.63-15.38l80.97-1.18,13.74-.2-.03-13.7v-.04s-.24-113.37-.24-113.39l-.03-13.86h-13.88l-321.91.06h-13.88l-.03,13.86v.02l-.24,113.5v.04l-.03,13.81,13.85.09,107.94.72c7.59.05,13.74,6.16,13.82,13.75.01.56.01,1.12.01,1.68v.05c-.03,7.64-6.21,13.84-13.85,13.87l-107.67.43-13.77.05-.09,13.77-.65,98.57c-.05,7.65-6.26,13.8-13.89,13.82h-.21s-1.92-.03-1.93-.03c-7.61-.12-13.71-6.3-13.71-13.91V225.99c.44-5.41,2.03-11.22,6.19-15.66,3.47-3.36,6.3-5.25,9.14-6.3,4.55-1.69,9.14-1.23,16.48-1.23,26.9,0,268,.65,604.45-.18,3.84,0,7.5.49,10.92,1.41,16.41,4.43,27.52,18.82,27.53,36.94l.13,604.03Z"/>
    <path d="M829.51,404.53c1.94,0,3.24,0,3.76.01h-2.07c-1.3-.01-3.12-.01-5.36-.01h3.67Z"/>
    <path d="M202.58,225.99v7.29c-.16-2.21-.21-4.71,0-7.29Z"/>
    <path d="M246.58,374.06l-13.85-.09.03-13.81c0,7.64,6.17,13.85,13.82,13.9Z"/>
    <path d="M246.8,847.24h-13.76s-.06-13.74-.06-13.74c.09,7.58,6.24,13.68,13.82,13.74Z"/>
    <path d="M246.83,404.56c-7.63.03-13.81,6.19-13.86,13.82l.09-13.77,13.77-.05Z"/>
    <path d="M246.91,232.74c-7.65,0-13.87,6.19-13.91,13.86l.03-13.86h13.88Z"/>
    <path d="M475.88,833.32l-.09,13.7h-13.81c7.6.01,13.79-6.11,13.9-13.7Z"/>
    <path d="M519.59,847.24h-13.88l-.03-13.88c0,.88.09,1.74.25,2.57.04.2.08.4.13.6.04.2.09.39.15.59.11.39.24.77.38,1.15.3.8.68,1.56,1.12,2.29.11.19.23.38.36.56.25.37.52.73.8,1.07.1.12.2.24.3.35.59.67,1.25,1.28,1.96,1.83.16.12.31.24.48.35.13.09.27.19.41.28,1.02.66,2.13,1.2,3.31,1.57.13.05.26.09.39.12.13.04.27.08.4.11.21.06.41.1.62.15.05.01.09.02.13.02.16.03.31.06.46.08.13.03.26.05.38.06.21.03.42.05.62.07.18.02.36.03.55.04.23.01.47.02.71.02Z"/>
    <path d="M582.73,246.54c-.03-7.63-6.2-13.81-13.82-13.86h13.79l.03,13.86Z"/>
    <path d="M583,373.67l-13.74.2c7.61-.11,13.71-6.3,13.71-13.9l.03,13.7Z"/>
    <path d="M626.29,232.71c-7.58.09-13.71,6.25-13.75,13.85l.02-13.85h13.73Z"/>
    <path d="M846.91,642.67l-.03,13.86-13.86.02c7.66-.01,13.87-6.22,13.89-13.88Z"/>
    <path d="M846.92,833.57l-.03,13.69h-13.85c7.59-.02,13.77-6.12,13.88-13.69Z"/>
    <path d="M846.97,246.54c-.09-7.61-6.28-13.75-13.91-13.75h13.88l.03,13.75Z"/>
    <path d="M847.21,373.22l-13.87.06c7.66-.03,13.84-6.24,13.84-13.89l.03,13.83Z"/>
    <path d="M847.3,685.6l-.04,13.88c0-7.66-6.18-13.87-13.84-13.91l13.88.03Z"/>
    <path d="M847.43,404.56l-.03,13.87c-.01-7.64-6.2-13.85-13.84-13.89l13.87.02Z"/>
  </g>
</svg>