<?xml version="1.0" encoding="UTF-8"?>
<svg id="Layer_2" data-name="Layer 2" xmlns="http://www.w3.org/2000/svg" viewBox="0 0 1080 1080">
  <path d="M569.14,634.96c-.01.11-.02.23-.02.34-.38,7.94,5.92,14.61,13.87,14.62l228.48.48h.04c7.66.04,13.84,6.25,13.84,13.91v.04l-.33,133.86c0,.06,0,.13-.01.19-.11,7.57-6.29,13.67-13.88,13.69h-.03l-313.42-.02c-.24,0-.48-.01-.71-.02-.19-.01-.37-.02-.55-.04-.2-.02-.41-.04-.62-.07-.12-.01-.25-.03-.38-.06-.15-.02-.3-.05-.46-.08-.04,0-.08-.01-.13-.02-.21-.05-.41-.09-.62-.15-.13-.03-.27-.07-.4-.11-.13-.03-.26-.07-.39-.12-1.18-.37-2.29-.91-3.31-1.57-.14-.09-.28-.19-.41-.28-.17-.11-.32-.23-.48-.35-.71-.55-1.37-1.16-1.96-1.83-.1-.11-.2-.23-.3-.35-.28-.34-.55-.7-.8-1.07-.13-.18-.25-.37-.36-.56-.44-.73-.82-1.49-1.12-2.29-.14-.38-.27-.76-.38-1.15-.06-.2-.11-.39-.15-.59-.05-.2-.09-.4-.13-.6v-190.17c0-8.02-6.49-14.51-14.51-14.51h-1.03c-8.01,0-14.51,6.49-14.51,14.51v187.56c-.11,7.59-6.3,13.71-13.9,13.71l-215.07.21h-.11c-7.58-.06-13.73-6.16-13.82-13.74v-.12l-.77-188.12v-.12c-.1-7.61-6.29-13.73-13.9-13.73h-1.92c-7.64.06-13.81,6.26-13.81,13.91v-128.49c0,7.61,6.1,13.79,13.71,13.91.01,0,1.93.03,1.93.03h.21c7.63-.02,13.84-6.17,13.89-13.82l.65-98.57c.05-7.63,6.23-13.79,13.86-13.82l107.67-.43c7.64-.03,13.82-6.23,13.85-13.87v-.05c0-.56,0-1.12-.01-1.68-.08-7.59-6.23-13.7-13.82-13.75l-107.94-.72c-7.65-.05-13.82-6.26-13.82-13.9v-.04l.24-113.5v-.02c.04-7.67,6.26-13.86,13.91-13.86l321.91-.06h.09c7.62.05,13.79,6.23,13.82,13.86,0,.02.24,113.39.24,113.39v.04c0,7.6-6.1,13.79-13.71,13.9l-80.97,1.18c-8.18.12-14.48,7.24-13.63,15.38.03.32.06.63.1.94.03.31.07.62.11.93.86,6.92,6.7,12.12,13.66,12.2h.15l109.76-.05h.14c7.6-.09,13.73-6.24,13.77-13.85v-.05l.19-143.94v-.05c.04-7.6,6.17-13.76,13.75-13.85h.17l206.6.08c7.63,0,13.82,6.14,13.91,13.75v.13l.21,112.68v.04c0,7.65-6.18,13.86-13.84,13.89l-105.21.5c-7.43.03-13.52,5.9-13.83,13.32l-.12,2.8v.06c-.3,7.87,5.99,14.42,13.86,14.44.01,0,26.38.04,52.75.07,9.07.01,18.13.02,26.12.03,2.18,0,4.28,0,6.28,0,1.33,0,2.61,0,3.85.01h3.55c.98,0,1.92,0,2.81,0,.5,0,.99,0,1.46,0h4.65c.63,0,1.2,0,1.69.01h2.36c7.64.04,13.83,6.25,13.84,13.89v.05l-.49,224.19c-.02,7.66-6.23,13.87-13.89,13.88l-228.1.37h-.15c-7.33.1-13.31,5.87-13.72,13.21Z"/>
  <path d="M224.67,338.89l-13.85-.09.03-13.81c0,7.64,6.17,13.85,13.82,13.9Z"/>
  <path d="M224.89,812.07h-13.76s-.06-13.74-.06-13.74c.09,7.58,6.24,13.68,13.82,13.74Z"/>
  <path d="M224.92,369.39c-7.63.03-13.81,6.19-13.86,13.82l.09-13.77,13.77-.05Z"/>
  <path d="M225,197.57c-7.65,0-13.87,6.19-13.91,13.86l.03-13.86h13.88Z"/>
  <path d="M453.97,798.15l-.09,13.7h-13.81c7.6,0,13.79-6.11,13.9-13.7Z"/>
  <path d="M497.68,812.07h-13.88l-.03-13.88c0,.88.09,1.74.25,2.57.03.2.07.4.13.6.04.2.09.39.15.59.1.39.23.78.38,1.15.3.8.68,1.56,1.12,2.29.11.19.23.38.36.56.25.37.52.73.8,1.07.1.12.2.24.3.35.59.67,1.25,1.28,1.96,1.83.16.12.31.24.48.35.13.09.27.19.41.28,1.02.66,2.13,1.2,3.31,1.57.13.05.26.09.39.12.13.04.27.08.4.11.21.06.41.1.62.15.05.01.09.02.13.02.16.03.31.06.46.08.13.03.26.05.38.06.21.03.42.05.62.07.18.02.36.03.55.04.23.01.47.02.71.02Z"/>
  <path d="M560.82,211.37c-.03-7.63-6.2-13.81-13.82-13.86h13.79l.03,13.86Z"/>
  <path d="M561.09,338.5l-13.74.2c7.61-.11,13.71-6.3,13.71-13.9l.03,13.7Z"/>
  <path d="M604.38,197.54c-7.58.09-13.71,6.25-13.75,13.85l.02-13.85h13.73Z"/>
  <path d="M825,607.5l-.03,13.86-13.86.02c7.66,0,13.87-6.22,13.89-13.88Z"/>
  <path d="M825.01,798.4l-.03,13.69h-13.85c7.59-.02,13.77-6.12,13.88-13.69Z"/>
  <path d="M825.06,211.37c-.09-7.61-6.28-13.75-13.91-13.75h13.88l.03,13.75Z"/>
  <path d="M825.3,338.05l-13.87.06c7.66-.03,13.84-6.24,13.84-13.89l.03,13.83Z"/>
  <path d="M825.39,650.43l-.04,13.88c0-7.66-6.18-13.87-13.84-13.91l13.88.03Z"/>
  <path d="M825.52,369.39l-.03,13.87c-.01-7.64-6.2-13.85-13.84-13.89l13.87.02Z"/>
  <path d="M874.38,205.79c-.02-26.35-16.73-48.56-41.6-55.27-5.09-1.37-10.42-2.07-15.9-2.07-113.5.28-228.81.43-342.72.43s-194.98-.14-234.92-.21c-13.61-.02-22.67-.04-26.76-.04-1.29,0-2.49,0-3.61-.03-1.15-.01-2.22-.02-3.25-.02-4.97,0-10.38.3-16.21,2.46-5.47,2.02-10.48,5.35-15.77,10.47-.22.22-.44.44-.65.66-6.58,7.03-10.37,16.15-11.26,27.11-.04.51-.06,1.03-.06,1.54v290.84c0,13.09,7.8,24.51,19,29.79,4.09,1.94,8.63,3.05,13.41,3.12.01,0,1.93.03,1.93.03h.56c17.99-.05,32.72-14.71,32.84-32.69l.61-93.54,102.64-.41c18-.07,32.71-14.78,32.78-32.79v-.13c0-.65,0-1.31-.02-1.97-.23-17.79-14.88-32.34-32.69-32.46l-102.87-.68.22-103.36,311.75-.06c.02,9.05.07,34.07.22,103.27l-75.95,1.1c-9.21.14-18.01,4.17-24.12,11.06-6.1,6.87-9.06,16.04-8.14,25.18.04.41.08.81.12,1.21.05.41.1.8.14,1.15,2.02,16.26,15.91,28.66,32.3,28.85.07,0,110.42-.05,110.49-.05,17.85-.21,32.45-14.9,32.55-32.75,0-.02.18-138.99.18-138.99l196.45.08.19,102.52-100.12.47c-17.62.08-32,13.92-32.74,31.51l-.12,2.8c0,.13-.01.27-.01.42-.26,8.78,3.07,17.43,9.16,23.78,6.15,6.4,14.77,10.09,23.67,10.11h.11c1.91.01,27.27.04,52.64.07,0,0,32.57.04,32.63.04,1.2,0,2.36,0,3.48.01h3.94c.83,0,1.62,0,2.38,0h5.2l-.47,214.03s-223.33.36-223.41.36c-17.11.24-31.28,13.74-32.41,30.81-.03.38-.05.76-.07,1.13-.34,8.86,2.96,17.6,9.07,24.02,6.17,6.48,14.83,10.2,23.76,10.21l223.38.47-.3,123.7-303.01-.02v-182.48c0-18.47-15.04-33.51-33.51-33.51h-1.03c-18.48,0-33.51,15.04-33.51,33.51v182.28l-204.92.2s-.75-183.26-.76-183.35c-.23-17.91-14.99-32.48-32.89-32.48h-2.07c-4.88.04-9.5,1.15-13.66,3.11-11.21,5.26-19,16.67-19,29.8v218.15c0,18.15,14.76,32.91,32.91,32.91h629.73c5.16,0,10.1-2.1,13.68-5.81l31.2-32.38c3.41-3.55,5.32-8.27,5.32-13.19l-.13-604.04ZM824.31,842.21H194.58c-7.68,0-13.91-6.23-13.91-13.91v-218.15c0-7.65,6.17-13.85,13.81-13.91h1.92c7.61,0,13.8,6.12,13.9,13.73v.12l.77,188.12v.12l.06,13.75h13.76s.11-.01.11-.01l215.07-.21h13.81s.09-13.71.09-13.71v-187.56c0-8.02,6.5-14.51,14.51-14.51h1.03c8.02,0,14.51,6.49,14.51,14.51v190.17c-.16-.83-.25-1.69-.25-2.57l.03,13.88h13.88l313.42.02h13.88l.03-13.69c.01-.06.01-.13.01-.19l.33-133.86v-.04l.04-13.88-13.88-.03h-.04l-228.48-.48c-7.95-.01-14.25-6.68-13.87-14.62,0-.11.01-.23.02-.34.41-7.34,6.39-13.11,13.72-13.21h.15l228.1-.37,13.86-.02.03-13.86.49-224.19v-.05l.03-13.87-13.87-.02h-1.38c-.31,0-.67,0-1.08,0-.47,0-1,0-1.59,0h-4.65c-.47,0-.96,0-1.46,0-.89,0-1.83,0-2.81,0h-3.55c-1.24-.01-2.52-.01-3.85-.01-2,0-4.1,0-6.28,0-7.99-.01-17.05-.02-26.12-.03-26.37-.03-52.74-.07-52.75-.07-7.87-.02-14.16-6.57-13.86-14.44v-.06l.12-2.8c.31-7.42,6.4-13.29,13.83-13.32l105.21-.5,13.87-.06-.03-13.83v-.04l-.21-112.68v-.13l-.03-13.75h-13.88l-206.6-.08h-13.9l-.02,13.85v.05l-.19,143.94v.05c-.04,7.61-6.17,13.76-13.77,13.85h-.14l-109.76.05h-.15c-6.96-.08-12.8-5.28-13.66-12.2-.04-.31-.08-.62-.11-.93-.04-.31-.07-.62-.1-.94-.85-8.14,5.45-15.26,13.63-15.38l80.97-1.18,13.74-.2-.03-13.7v-.04s-.24-113.37-.24-113.39l-.03-13.86h-13.88l-321.91.06h-13.88l-.03,13.86v.02l-.24,113.5v.04l-.03,13.81,13.85.09,107.94.72c7.59.05,13.74,6.16,13.82,13.75.01.56.01,1.12.01,1.68v.05c-.03,7.64-6.21,13.84-13.85,13.87l-107.67.43-13.77.05-.09,13.77-.65,98.57c-.05,7.65-6.26,13.8-13.89,13.82h-.21s-1.92-.03-1.93-.03c-7.61-.12-13.71-6.3-13.71-13.91V190.82c.44-5.41,2.03-11.22,6.19-15.66,3.47-3.36,6.3-5.25,9.14-6.3,4.55-1.69,9.14-1.23,16.48-1.23,26.9,0,268,.65,604.45-.18,3.84,0,7.5.49,10.92,1.41,16.41,4.43,27.52,18.82,27.53,36.94l.13,604.03-31.2,32.38Z"/>
  <path d="M807.6,369.36c.59,0,1.12,0,1.59,0-.47,0-1,0-1.59,0Z"/>
  <path d="M809.29,369.37s-.07,0-.1,0c.41,0,.77,0,1.08,0h-.98Z"/>
  <path d="M808.89,369.37c-.23,0-.48,0-.74,0-1.15,0-2.57,0-4.22,0h3.67c.59,0,1.12,0,1.59,0,.41,0,.77,0,1.08,0h-.98c-.12,0-.27,0-.4,0Z"/>
  <path d="M180.67,190.82v7.29c-.16-2.21-.21-4.71,0-7.29Z"/>
  <path d="M224.67,338.89l-13.85-.09.03-13.81c0,7.64,6.17,13.85,13.82,13.9Z"/>
  <path d="M224.89,812.07h-13.76s-.06-13.74-.06-13.74c.09,7.58,6.24,13.68,13.82,13.74Z"/>
  <path d="M224.92,369.39c-7.63.03-13.81,6.19-13.86,13.82l.09-13.77,13.77-.05Z"/>
  <path d="M225,197.57c-7.65,0-13.87,6.19-13.91,13.86l.03-13.86h13.88Z"/>
  <path d="M453.97,798.15l-.09,13.7h-13.81c7.6,0,13.79-6.11,13.9-13.7Z"/>
  <path d="M497.68,812.07h-13.88l-.03-13.88c0,.88.09,1.74.25,2.57.04.2.08.4.13.6.04.2.09.39.15.59.11.39.24.77.38,1.15.3.8.68,1.56,1.12,2.29.11.19.23.38.36.56.25.37.52.73.8,1.07.1.12.2.24.3.35.59.67,1.25,1.28,1.96,1.83.16.12.31.24.48.35.13.09.27.19.41.28,1.02.66,2.13,1.2,3.31,1.57.13.05.26.09.39.12.13.04.27.08.4.11.21.06.41.1.62.15.05.01.09.02.13.02.16.03.31.06.46.08.13.03.26.05.38.06.21.03.42.05.62.07.18.02.36.03.55.04.23.01.47.02.71.02Z"/>
  <path d="M560.82,211.37c-.03-7.63-6.2-13.81-13.82-13.86h13.79l.03,13.86Z"/>
  <path d="M561.09,338.5l-13.74.2c7.61-.11,13.71-6.3,13.71-13.9l.03,13.7Z"/>
  <path d="M604.38,197.54c-7.58.09-13.71,6.25-13.75,13.85l.02-13.85h13.73Z"/>
  <path d="M825,607.5l-.03,13.86-13.86.02c7.66,0,13.87-6.22,13.89-13.88Z"/>
  <path d="M825.01,798.4l-.03,13.69h-13.85c7.59-.02,13.77-6.12,13.88-13.69Z"/>
  <path d="M825.06,211.37c-.09-7.61-6.28-13.75-13.91-13.75h13.88l.03,13.75Z"/>
  <path d="M825.3,338.05l-13.87.06c7.66-.03,13.84-6.24,13.84-13.89l.03,13.83Z"/>
  <path d="M825.39,650.43l-.04,13.88c0-7.66-6.18-13.87-13.84-13.91l13.88.03Z"/>
  <path d="M825.52,369.39l-.03,13.87c-.01-7.64-6.2-13.85-13.84-13.89l13.87.02Z"/>
</svg>