<?xml version="1.0" encoding="UTF-8"?>
<svg id="Layer_2" data-name="Layer 2" xmlns="http://www.w3.org/2000/svg" viewBox="0 0 1080 1080">
  <defs>
    <style>
      .cls-1 {
        fill: #242424;
      }
    </style>
  </defs>
  <rect class="cls-1" x="522.31" y="533.47" width="35.37" height="75.51" rx="1.97" ry="1.97"/>
  <path class="cls-1" d="M716.47,278.9h-354.06c-6.28,0-11.38,5.1-11.38,11.37v239.97c0,6.27,5.1,11.37,11.38,11.37h354.06c6.27,0,11.37-5.1,11.37-11.37v-239.97c0-6.27-5.1-11.37-11.37-11.37ZM711.18,524.96h-343.49v-229.4h343.49v229.4Z"/>
  <rect class="cls-1" x="389.81" y="310.63" width="300.38" height="200.03" rx="9.35" ry="9.35"/>
  <path class="cls-1" d="M789.91,589.98h-499.82c-7.02,0-12.71,5.68-12.71,12.7v185.71c0,7.01,5.69,12.7,12.71,12.7h91.39v-93.95c0-5.45,4.42-9.87,9.87-9.87h297.3c5.45,0,9.87,4.42,9.87,9.87v93.95h91.39c7.02,0,12.71-5.69,12.71-12.7v-185.71c0-7.02-5.69-12.7-12.71-12.7ZM772.62,771.09h-44.1v-63.95c0-21.98-17.88-39.87-39.87-39.87h-297.3c-21.98,0-39.87,17.89-39.87,39.87v63.95h-44.1v-151.11h465.24v151.11Z"/>
</svg>