<?xml version="1.0" encoding="UTF-8"?>
<svg id="Layer_2" data-name="Layer 2" xmlns="http://www.w3.org/2000/svg" viewBox="0 0 1080 1080">
  <defs>
    <style>
      .cls-1 {
        fill: #fff;
      }
    </style>
  </defs>
  <rect class="cls-1" x="517.22" y="531.59" width="45.55" height="97.24" rx="1.97" ry="1.97"/>
  <path class="cls-1" d="M767.26,203.75h-455.97c-8.09,0-14.66,6.57-14.66,14.64v309.04c0,8.07,6.57,14.64,14.66,14.64h455.97c8.07,0,14.64-6.57,14.64-14.64V218.39c0-8.07-6.57-14.64-14.64-14.64ZM760.45,520.64h-442.36V225.21h442.36v295.43Z"/>
  <rect class="cls-1" x="362.14" y="254.98" width="355.71" height="236.87" rx="9.35" ry="9.35"/>
  <path class="cls-1" d="M861.84,604.37H218.15c-9.04,0-16.37,7.31-16.37,16.36v239.16c0,9.03,7.33,16.36,16.37,16.36h117.7v-120.99c0-7.02,5.69-12.71,12.71-12.71h382.87c7.02,0,12.71,5.69,12.71,12.71v120.99h117.7c9.04,0,16.37-7.33,16.37-16.36v-239.16c0-9.04-7.33-16.36-16.37-16.36ZM839.57,837.61h-56.79v-82.36c0-28.31-23.03-51.35-51.35-51.35h-382.87c-28.31,0-51.35,23.04-51.35,51.35v82.36h-56.79v-194.6h599.15v194.6Z"/>
</svg>