<?xml version="1.0" encoding="UTF-8"?>
<svg id="Layer_2" data-name="Layer 2" xmlns="http://www.w3.org/2000/svg" viewBox="0 0 1080 1080">
  <defs>
    <style>
      .cls-1 {
        fill: #ffd506;
      }

      .cls-2 {
        fill: #242424;
      }
    </style>
  </defs>
  <g>
    <path class="cls-2" d="M161.11,503.25v.11l.06-.11h-.06Z"/>
    <path class="cls-2" d="M790.57,487.36l-81.45-175.39h-442.59l-96.61,175.39-8.75,15.89-.06.11v315.85h315.97v-280.95c0-19.27,15.63-34.9,34.9-34.9h208.38c19.27,0,34.9,15.63,34.9,34.9v279.11h42.74v-314.01l-7.43-16ZM204.82,467.54l63.76-115.76c3.14-5.7,7.75-10.45,13.34-13.76,5.59-3.3,11.98-5.05,18.49-5.05h372.11c13.32,0,25.55,7.27,31.91,18.97l.09.16c.14.28.29.55.43.83.22.4.39.76.52,1.05l53.03,114.17c1.44,3.09,1.2,6.71-.64,9.59-1.84,2.88-5.02,4.62-8.43,4.62H213.58c-3.54,0-6.81-1.87-8.61-4.91-1.8-3.05-1.86-6.82-.15-9.91ZM439.61,781.74h-241.03v-241.02h241.03v241.02Z"/>
    <path class="cls-2" d="M300.41,342.97c-4.8,0-9.41,1.3-13.4,3.66-3.99,2.36-7.35,5.76-9.67,9.97,4.76-8.41,13.68-13.63,23.36-13.63h-.29ZM672.52,342.97h-.3c9.76,0,18.7,5.31,23.42,13.74-4.58-8.43-13.43-13.74-23.12-13.74Z"/>
    <path class="cls-2" d="M696.52,358.44l-.11-.23c-.05-.11-.1-.22-.15-.32-.06-.11-.11-.22-.17-.32-.14-.29-.3-.58-.45-.86-4.58-8.43-13.43-13.74-23.12-13.74h-372.11c-4.8,0-9.41,1.3-13.4,3.66-3.99,2.36-7.35,5.76-9.67,9.97l-63.76,115.76h535.85l-52.91-113.92ZM294.86,366.25c1.11-2.02,3.24-3.28,5.55-3.28h372.11c2.46,0,4.72,1.44,5.76,3.67l39.81,85.72H247.43l47.43-86.11Z"/>
    <path class="cls-2" d="M696.52,358.44l-.11-.23c-.05-.11-.1-.22-.15-.32-.06-.11-.11-.22-.17-.32-.14-.29-.3-.58-.45-.86-4.58-8.43-13.43-13.74-23.12-13.74h-372.11c-4.8,0-9.41,1.3-13.4,3.66-3.99,2.36-7.35,5.76-9.67,9.97l-63.76,115.76h535.85l-52.91-113.92ZM294.86,366.25c1.11-2.02,3.24-3.28,5.55-3.28h372.11c2.46,0,4.72,1.44,5.76,3.67l39.81,85.72H247.43l47.43-86.11Z"/>
    <path class="cls-1" d="M696.52,358.44l-.11-.23c-.05-.11-.1-.22-.15-.32-.06-.11-.11-.22-.17-.32-.14-.29-.3-.58-.45-.86-4.58-8.43-13.43-13.74-23.12-13.74h-372.11c-4.8,0-9.41,1.3-13.4,3.66-3.99,2.36-7.35,5.76-9.67,9.97l-63.76,115.76h535.85l-52.91-113.92ZM294.86,366.25c1.11-2.02,3.24-3.28,5.55-3.28h372.11c2.46,0,4.72,1.44,5.76,3.67l39.81,85.72H247.43l47.43-86.11Z"/>
    <path class="cls-2" d="M696.52,358.44l-.11-.23c-.05-.11-.1-.22-.15-.32-.06-.11-.11-.22-.17-.32-.14-.29-.3-.58-.45-.86-4.58-8.43-13.43-13.74-23.12-13.74h-372.11c-4.8,0-9.41,1.3-13.4,3.66-3.99,2.36-7.35,5.76-9.67,9.97l-63.76,115.76h535.85l-52.91-113.92ZM294.86,366.25c1.11-2.02,3.24-3.28,5.55-3.28h372.11c2.46,0,4.72,1.44,5.76,3.67l39.81,85.72H247.43l47.43-86.11Z"/>
    <rect class="cls-2" x="470.62" y="55.72" width="34.86" height="444.99" transform="translate(766.26 -209.83) rotate(90)"/>
  </g>
  <path class="cls-2" d="M709.12,311.97h-442.59l-96.61,175.39h620.65l-81.45-175.39ZM294.86,366.25c1.11-2.02,3.24-3.28,5.55-3.28h372.11c2.46,0,4.72,1.44,5.76,3.67l39.81,85.72H247.43l47.43-86.11Z"/>
</svg>