<?xml version="1.0" encoding="UTF-8"?>
<svg id="Layer_2" data-name="Layer 2" xmlns="http://www.w3.org/2000/svg" viewBox="0 0 1080 1080">
  <defs>
    <style>
      .cls-1 {
        fill: #242424;
      }
    </style>
  </defs>
  <path class="cls-1" d="M427.46,197.91v684.18l565.97-6.57,2.73-490.07L427.46,197.91ZM932.88,875.9h-434.09v-419.04l434.09,134.89v284.15ZM973.54,855.75l-20.66.24v-278.97l-474.09-147.32v431.79l-31.33.37V225.56l528.62,174.33-2.54,455.86Z"/>
  <path class="cls-1" d="M330.42,258.4v623.69h64.04V281.44l-64.04-23.04ZM384.46,872.09h-44.04V272.62l44.04,15.85v583.62Z"/>
  <path class="cls-1" d="M248.67,345.3v536.79h48.76V365.13l-48.76-19.83ZM287.43,872.09h-28.76v-511.92l28.76,11.69v500.23Z"/>
  <path class="cls-1" d="M181.2,399.05v483.04h36.35v-465.2l-36.35-17.84ZM207.55,872.09h-16.35v-456.99l16.35,8.02v448.97Z"/>
  <path class="cls-1" d="M122.5,487.36v394.73h31.02v-380.15l-31.02-14.58ZM143.52,872.09h-11.02v-368.98l11.02,5.18v363.8Z"/>
  <path class="cls-1" d="M489.92,445.04v430.92h451.83v-290.71l-451.83-140.21ZM930.83,865.06h-430v-405.22l430,133.44v271.78Z"/>
  <path class="cls-1" d="M846.29,635.44c-.2,0-.4-.03-.6-.09l-305.82-91.55c-1.1-.33-1.73-1.49-1.4-2.6.33-1.1,1.49-1.73,2.6-1.4l305.82,91.55c1.1.33,1.73,1.49,1.4,2.6-.27.9-1.1,1.49-2,1.49Z"/>
  <path class="cls-1" d="M781.71,658.26c-.2,0-.4-.03-.6-.09l-241.24-72.06c-1.1-.33-1.73-1.49-1.4-2.6.33-1.11,1.49-1.73,2.6-1.4l241.24,72.06c1.1.33,1.73,1.49,1.4,2.6-.27.91-1.1,1.49-2,1.49Z"/>
  <path class="cls-1" d="M744.26,702.26c-.19,0-.39-.03-.58-.08l-203.79-58.71c-1.11-.32-1.75-1.48-1.43-2.58.32-1.11,1.48-1.75,2.58-1.43l203.79,58.71c1.11.32,1.75,1.48,1.43,2.58-.26.92-1.1,1.51-2,1.51Z"/>
  <path class="cls-1" d="M653.78,721.75c-.15,0-.31-.02-.46-.06l-98.56-25.27c-.99-.25-1.58-1.26-1.33-2.25.25-.99,1.26-1.58,2.25-1.33l98.56,25.27c.99.25,1.58,1.26,1.33,2.25-.21.83-.96,1.39-1.79,1.39Z"/>
</svg>