<?xml version="1.0" encoding="UTF-8"?>
<svg id="Layer_2" data-name="Layer 2" xmlns="http://www.w3.org/2000/svg" viewBox="0 0 1080 1080">
  <defs>
    <style>
      .cls-1 {
        fill: #fff;
      }
    </style>
  </defs>
  <g>
    <path class="cls-1" d="M427.46,197.91v684.18l565.97-6.57,2.73-490.07L427.46,197.91ZM932.88,872.09v3.81h-434.09v-3.81h-8.87v-427.05l451.82,140.21v286.84h-8.86ZM973.54,855.75l-9.33.11-11.33.13v-278.97l-473.19-147.04-.9-.28v431.79l-31.33.37V225.56l528.62,174.33-2.54,455.86Z"/>
    <path class="cls-1" d="M330.42,258.4v623.69h64.04V281.44l-64.04-23.04ZM384.46,872.09h-44.04V272.62l44.04,15.85v583.62Z"/>
    <path class="cls-1" d="M248.67,345.3v536.79h48.76V365.13l-48.76-19.83ZM287.43,872.09h-28.76v-511.92l28.76,11.69v500.23Z"/>
    <path class="cls-1" d="M181.2,399.05v483.04h36.35v-465.2l-36.35-17.84ZM207.55,872.09h-16.35v-456.99l16.35,8.02v448.97Z"/>
    <path class="cls-1" d="M122.5,487.36v394.73h31.02v-380.15l-31.02-14.58ZM143.52,872.09h-11.02v-368.98l11.02,5.18v363.8Z"/>
    <path class="cls-1" d="M932.88,872.09v-280.34l-434.09-134.89v415.23h-8.87v3.87h451.82v-3.87h-8.86ZM500.83,459.84l428.91,133.1,1.09.34v271.78h-430v-405.22Z"/>
  </g>
  <polygon class="cls-1" points="929.74 592.94 500.83 755.89 500.83 459.84 929.74 592.94"/>
  <path class="cls-1" d="M498.79,456.86v415.23h434.09v-280.34l-434.09-134.89ZM930.83,865.06h-430v-405.22l428.91,133.1,1.09.34v271.78ZM952.88,855.99v-278.97l-473.19-147.04v442.11h10.23v-427.05l451.82,140.21v286.84h22.47v-16.23l-11.33.13Z"/>
  <polygon class="cls-1" points="500.83 459.84 929.74 592.94 500.83 755.89 500.83 459.84"/>
  <polygon class="cls-1" points="932.88 591.75 930.83 593.28 929.74 592.94 932.88 591.75"/>
</svg>