<?xml version="1.0" encoding="UTF-8"?>
<svg id="Layer_2" data-name="Layer 2" xmlns="http://www.w3.org/2000/svg" viewBox="0 0 1080 1080">
  <defs>
    <style>
      .cls-1 {
        fill: #242424;
      }
    </style>
  </defs>
  <path class="cls-1" d="M460.37,585.35v237.42h72.87v-273.06l-72.87,35.64ZM523.24,812.77h-52.87v-221.17l52.87-25.86v247.03Z"/>
  <path class="cls-1" d="M549.33,548.6v274.17h72.88v-237.42l-72.88-36.75ZM612.21,812.77h-52.88v-247.92l52.88,26.66v221.26Z"/>
  <g>
    <path class="cls-1" d="M292.03,829.78v-386.8l85.65-46.35v433.15h-85.65ZM363.18,815.28v-394.31l-56.65,30.65v363.66h56.65Z"/>
    <path class="cls-1" d="M299.03,447.15v375.63h71.65v-414.4l-71.65,38.77ZM370.18,822.28h-70.65v-374.83l70.65-38.23v413.06Z"/>
    <path class="cls-1" d="M291.53,830.28v-387.59l86.65-46.9v434.49h-86.65ZM363.18,815.28v-394.31l-56.65,30.65v363.66h56.65Z"/>
    <path class="cls-1" d="M298.53,446.86v376.42h72.65v-415.74l-72.65,39.32ZM370.18,822.28h-70.65v-374.83l70.65-38.23v413.06Z"/>
  </g>
  <path class="cls-1" d="M838.58,402.14l-277.47-152.02c-12.92-7.08-27.75-7.1-40.69-.05l-278.95,152.05c-10.99,5.99-15.06,19.81-9.07,30.8,3.98,7.3,11.62,11.84,19.95,11.84,3.77,0,7.52-.96,10.85-2.77l277.52-151.27,276.04,151.24c3.39,1.86,7.12,2.81,10.88,2.81,2.14,0,4.29-.31,6.4-.92,5.82-1.7,10.63-5.57,13.54-10.89,6.02-10.98,1.98-24.8-9-30.82ZM833.55,425.27c-.86,1.58-2.28,2.72-4,3.22-1.72.5-3.53.3-5.1-.56l-277.47-152.02c-2.02-1.11-4.14-1.66-6.26-1.66s-4.22.55-6.23,1.64l-278.95,152.05c-1,.54-2.07.82-3.19.82-2.47,0-4.73-1.34-5.9-3.5-1.77-3.24-.57-7.32,2.68-9.09l278.95-152.05c8.05-4.39,17.29-4.38,25.34.03l277.47,152.02c3.25,1.78,4.44,5.86,2.66,9.1Z"/>
  <path class="cls-1" d="M659.99,450.34h-239.97c-6.27,0-11.37,5.11-11.37,11.38v354.06c0,6.27,5.1,11.37,11.37,11.37h239.97c6.27,0,11.37-5.1,11.37-11.37v-354.06c0-6.27-5.1-11.38-11.37-11.38ZM654.7,810.5h-229.39v-343.5h229.39v343.5Z"/>
</svg>