<?xml version="1.0" encoding="UTF-8"?>
<svg id="Layer_2" data-name="Layer 2" xmlns="http://www.w3.org/2000/svg" viewBox="0 0 1080 1080">
  <defs>
    <style>
      .cls-1 {
        fill: #242424;
      }

      .cls-2 {
        fill: #ffda00;
      }
    </style>
  </defs>
  <polygon class="cls-1" points="460.37 581.21 533.24 545.57 533.24 818.63 460.37 818.63 460.37 581.21"/>
  <polygon class="cls-1" points="622.21 581.21 622.21 818.63 549.33 818.63 549.33 544.46 622.21 581.21"/>
  <polyline class="cls-1" points="370.68 404.24 370.68 818.64 299.03 818.64 299.03 443.01"/>
  <path class="cls-1" d="M827.66,432.62c-2.39,0-4.81-.58-7.05-1.81l-277.47-152.02c-1.64-.9-3.17-.9-4.81,0l-278.95,152.05c-7.13,3.89-16.06,1.26-19.95-5.87-3.89-7.13-1.26-16.06,5.87-19.95l278.95-152.05c10.5-5.72,22.53-5.71,33.02.04l277.47,152.02c7.12,3.9,9.73,12.84,5.83,19.96-2.67,4.88-7.71,7.64-12.91,7.64Z"/>
  <path class="cls-2" d="M659.98,823.01h-239.97c-6.27,0-11.37-5.1-11.37-11.37v-354.06c0-6.27,5.1-11.37,11.37-11.37h239.97c6.27,0,11.37,5.1,11.37,11.37v354.06c0,6.27-5.1,11.37-11.37,11.37ZM425.3,806.35h229.39v-343.49h-229.39v343.49ZM659.98,462.86h.01-.01Z"/>
</svg>